<svg width="18" height="14" viewBox="0 0 18 14" fill="none" xmlns="http://www.w3.org/2000/svg">
<path fill-rule="evenodd" clip-rule="evenodd" d="M6.4548 7.9506L9.0018 9.6921L11.457 7.9983L16.9605 13.428C16.8156 13.4748 16.6608 13.5 16.4997 13.5H1.5003C1.3023 13.5 1.1133 13.4613 0.939601 13.392L6.4548 7.9506ZM18 3.4884V11.9997C18 12.222 17.9514 12.4326 17.865 12.6225L12.4704 7.2999L18 3.4884ZM8.49242e-07 3.5361L5.4378 7.2549L0.0954008 12.5271C0.032127 12.3585 -0.00019101 12.1798 8.49242e-07 11.9997V3.5361ZM16.4997 0C17.3277 0 18 0.6714 18 1.5003V2.0277L8.9982 8.2332L8.49242e-07 2.079V1.5003C8.49242e-07 0.6723 0.671401 0 1.5003 0H16.4997Z" fill="#41A789"/>
</svg>
